<svg data-name="Layer 2" xmlns="http://www.w3.org/2000/svg" width="942.406" height="105.873" viewBox="0 0 942.406 105.873">
    <g data-name="Layer 1">
        <path data-name="Path 16375" d="M257.937 62.239a23.42 23.42 0 1 1-46.817 0V0H191v62.239a43.62 43.62 0 0 0 87.24 0V0h-20.212z" transform="translate(246.688 .014)" style="fill:#beaf87"/>
        <path data-name="Path 16376" d="M52.912 20.212a32.681 32.681 0 0 1 22.415 8.895l11.592-16.732a52.912 52.912 0 1 0 0 81.076l-11.6-16.728a32.7 32.7 0 1 1-22.412-56.51z" transform="translate(0 .014)" style="fill:#beaf87"/>
        <path data-name="Path 16377" d="M161.695 71.13 112.472 0H92.26v105.824h20.212v-71.13l49.223 71.13h20.212V0h-20.212z" transform="translate(119.159 .014)" style="fill:#beaf87"/>
        <path data-name="Path 16378" d="M143.13 0v20.212h31.234v85.613h20.212V20.212h31.234V0z" transform="translate(184.861 .014)" style="fill:#beaf87"/>
        <path data-name="Path 16379" d="M386.38 0v20.212h11v85.613h20.212V0z" transform="translate(499.035 .014)" style="fill:#beaf87"/>
        <path data-name="Path 16380" d="M49.7 0v105.824h70.534V85.613H69.912V63.018h40.423V42.806H69.912V20.212h50.323V0z" transform="translate(64.19 .014)" style="fill:#beaf87"/>
        <path data-name="Path 16381" d="M322 35.519A35.588 35.588 0 0 0 286.484 0H240.79v105.824H261V71.039h12.9l24.065 34.761H322l-25.2-36.32A35.588 35.588 0 0 0 322 35.519zM286.484 50.85H261V20.212h25.482a15.331 15.331 0 0 1 0 30.638z" transform="translate(310.996 .014)" style="fill:#beaf87"/>
        <path data-name="Path 16382" d="m363.579 0-29.63 42.806L304.3 0h-24.02l43.563 62.9v42.921h20.212V62.9L387.594 0z" transform="translate(362 .014)" style="fill:#beaf87"/>
        <path data-name="Path 16383" d="m408.414 52.9.527-.756a33.457 33.457 0 1 0-61.208-18.676V34.7h20.257a11.219 11.219 0 0 1 0-1.237 13.245 13.245 0 0 1 13.177-13.243 12.787 12.787 0 0 1 13.245 13.245 26.331 26.331 0 0 1-4.262 10.289c-1.123 1.65-42.99 62.079-42.99 62.079h69.434V85.621H385.75z" transform="translate(448.38 .006)" style="fill:#beaf87"/>
        <path data-name="Path 16384" d="M412.361 38.48a8.984 8.984 0 0 1 4.308 1.146 8.022 8.022 0 0 1 3.254 3.231 8.891 8.891 0 0 1 1.169 4.377 8.776 8.776 0 0 1-1.146 4.354 8.112 8.112 0 0 1-3.231 3.231 8.845 8.845 0 0 1-8.708 0 8.411 8.411 0 0 1-3.231-3.231 9.029 9.029 0 0 1-1.146-4.354 8.892 8.892 0 0 1 1.169-4.377 8.088 8.088 0 0 1 3.277-3.185 8.89 8.89 0 0 1 4.285-1.192zm0 1.467a7.31 7.31 0 0 0-3.575.94 6.6 6.6 0 0 0-2.727 2.7 7.264 7.264 0 0 0 0 7.264 6.876 6.876 0 0 0 2.7 2.7 7.38 7.38 0 0 0 3.621.962 7.47 7.47 0 0 0 3.644-.962 6.875 6.875 0 0 0 2.681-2.7 7.264 7.264 0 0 0 0-7.264 6.669 6.669 0 0 0-2.773-2.7 7.333 7.333 0 0 0-3.571-.94zm-3.827 12.122v-9.418h3.231a7.629 7.629 0 0 1 2.406.275 2.475 2.475 0 0 1 1.6 2.292 2.429 2.429 0 0 1-.729 1.782 2.8 2.8 0 0 1-1.948.848 2.683 2.683 0 0 1 .8.5 10.044 10.044 0 0 1 1.4 1.856l1.146 1.856h-1.856l-.848-1.49a6.876 6.876 0 0 0-1.581-2.177 1.88 1.88 0 0 0-1.215-.344h-.894v4.01zm1.513-5.294h1.853a3.025 3.025 0 0 0 1.788-.39 1.307 1.307 0 0 0 .481-1.054 1.168 1.168 0 0 0-.229-.733 1.42 1.42 0 0 0-.642-.5 4.584 4.584 0 0 0-1.512-.16h-1.742z" transform="translate(521.314 49.714)" style="fill:#beaf87"/>
    </g>
</svg>
